<svg width="196" height="169" viewBox="0 0 196 169" fill="none" xmlns="http://www.w3.org/2000/svg">
<g clip-path="url(#clip0_1671_1880)">
<path d="M183.647 52.286C183.271 23.3076 168.441 0 150.199 0C139.236 0 129.506 8.41744 123.404 21.4243L130.578 39.3685L120.663 28.3082C118.162 35.792 116.743 44.3363 116.743 53.4108C116.722 60.2892 117.572 67.1426 119.272 73.8091L138.499 70.7193L121.292 80.3106C126.897 95.6306 137.143 106.094 148.953 106.784L146.677 168.507L153.721 168.758L152.215 106.722C169.033 105.126 182.504 83.6999 183.583 56.886L171.961 50.4081L183.647 52.286Z" fill="#F0F0F0"/>
<path d="M41.5584 89.4609H39.8867V101.894H41.5584V89.4609Z" fill="#D9E6BA"/>
<path d="M47.5591 94.983L46.3347 96.1197L40.7239 90.1011L35.1111 96.1197L33.8867 94.983L40.7239 87.6543L47.5591 94.983Z" fill="#D9E6BA"/>
<path d="M40.2603 108.143C37.6153 108.143 35.0296 107.361 32.8303 105.896C30.6311 104.431 28.9169 102.349 27.9047 99.9133C26.8925 97.4774 26.6277 94.7969 27.1437 92.2109C27.6597 89.6249 28.9334 87.2495 30.8038 85.3851C32.6741 83.5207 35.057 82.251 37.6513 81.7366C40.2455 81.2222 42.9345 81.4862 45.3782 82.4953C47.8219 83.5043 49.9106 85.213 51.3801 87.4053C52.8496 89.5976 53.6339 92.175 53.6339 94.8117C53.6299 98.3461 52.2196 101.735 49.7125 104.234C47.2053 106.733 43.806 108.139 40.2603 108.143ZM40.2603 83.1469C37.9459 83.1469 35.6835 83.831 33.7591 85.1128C31.8347 86.3945 30.3349 88.2163 29.4492 90.3477C28.5635 92.4792 28.3317 94.8246 28.7833 97.0874C29.2348 99.3501 30.3493 101.429 31.9858 103.06C33.6224 104.691 35.7075 105.802 37.9774 106.252C40.2473 106.702 42.6002 106.471 44.7384 105.589C46.8767 104.706 48.7043 103.211 49.9901 101.292C51.2759 99.374 51.9622 97.1188 51.9622 94.8117C51.9587 91.7191 50.7247 88.7541 48.531 86.5673C46.3372 84.3804 43.3628 83.1504 40.2603 83.1469Z" fill="#D9E6BA"/>
<path d="M54.7967 64.0996H53.875V70.9544H54.7967V64.0996Z" fill="#E4E4E4"/>
<path d="M58.1046 67.1444L57.4297 67.7711L54.336 64.4525L51.2415 67.7711L50.5664 67.1444L54.336 63.1035L58.1046 67.1444Z" fill="#E4E4E4"/>
<path d="M54.0806 74.3996C52.6222 74.3996 51.1966 73.9685 49.9841 73.1608C48.7715 72.3532 47.8264 71.2053 47.2683 69.8622C46.7102 68.5191 46.5642 67.0412 46.8487 65.6154C47.1332 64.1897 47.8355 62.88 48.8667 61.852C49.8979 60.8241 51.2117 60.1241 52.6421 59.8405C54.0724 59.5568 55.555 59.7024 56.9023 60.2587C58.2497 60.815 59.4013 61.7571 60.2115 62.9659C61.0217 64.1746 61.4541 65.5957 61.4541 67.0494C61.4519 68.9981 60.6744 70.8664 59.292 72.2443C57.9097 73.6223 56.0355 74.3974 54.0806 74.3996ZM54.0806 60.618C52.8045 60.618 51.5571 60.9952 50.4961 61.7019C49.4351 62.4086 48.6082 63.413 48.1199 64.5882C47.6315 65.7634 47.5038 67.0565 47.7527 68.3041C48.0017 69.5517 48.6161 70.6976 49.5184 71.5971C50.4207 72.4965 51.5703 73.1091 52.8219 73.3572C54.0734 73.6054 55.3707 73.478 56.5496 72.9912C57.7285 72.5045 58.7362 71.6801 59.4451 70.6225C60.154 69.5649 60.5324 68.3214 60.5324 67.0494C60.5305 65.3443 59.8501 63.7096 58.6406 62.5039C57.4311 61.2982 55.7911 60.6199 54.0806 60.618Z" fill="#E4E4E4"/>
<path d="M26.1248 47.1387H25.2031V53.9934H26.1248V47.1387Z" fill="#E4E4E4"/>
<path d="M29.4329 50.1832L28.7578 50.81L25.6641 47.4915L22.5696 50.81L21.8945 50.1832L25.6641 46.1426L29.4329 50.1832Z" fill="#E4E4E4"/>
<path d="M25.4087 57.4386C23.9504 57.4386 22.5248 57.0076 21.3122 56.1999C20.0996 55.3923 19.1545 54.2443 18.5964 52.9012C18.0384 51.5582 17.8923 50.0803 18.1768 48.6545C18.4614 47.2287 19.1636 45.919 20.1948 44.8911C21.226 43.8632 22.5399 43.1631 23.9702 42.8795C25.4005 42.5959 26.8831 42.7415 28.2304 43.2978C29.5778 43.8541 30.7294 44.7962 31.5396 46.0049C32.3498 47.2137 32.7823 48.6347 32.7823 50.0885C32.7801 52.0372 32.0025 53.9054 30.6202 55.2834C29.2378 56.6613 27.3636 57.4364 25.4087 57.4386ZM25.4087 43.6571C24.1327 43.6571 22.8853 44.0343 21.8243 44.741C20.7633 45.4477 19.9363 46.4521 19.448 47.6273C18.9597 48.8025 18.8319 50.0956 19.0808 51.3432C19.3298 52.5907 19.9443 53.7367 20.8466 54.6362C21.7489 55.5356 22.8985 56.1481 24.15 56.3963C25.4016 56.6444 26.6988 56.5171 27.8777 56.0303C29.0566 55.5435 30.0643 54.7192 30.7732 53.6616C31.4822 52.6039 31.8606 51.3605 31.8606 50.0885C31.8586 48.3834 31.1783 46.7486 29.9687 45.5429C28.7592 44.3372 27.1193 43.659 25.4087 43.6571Z" fill="#E4E4E4"/>
<path d="M77.42 131.431C77.2142 131.219 77.0558 130.967 76.9554 130.69C76.8551 130.412 76.8151 130.117 76.838 129.823C76.861 129.53 76.9464 129.244 77.0885 128.986C77.2307 128.728 77.4264 128.502 77.6626 128.325C77.7633 128.247 77.8701 128.176 77.9819 128.115L76.2109 120.508L80.3298 121.982L81.38 128.98C81.6269 129.417 81.7061 129.929 81.603 130.421C81.4998 130.912 81.2214 131.35 80.8192 131.652C80.3236 132.036 79.7038 132.226 79.0774 132.185C78.4509 132.144 77.8612 131.876 77.42 131.431Z" fill="#FFB8B8"/>
<path d="M76.9529 125.496L76.9308 125.421C74.7042 117.898 72.4026 110.12 69.5926 101.652L69.5742 101.597L69.6362 101.564C71.2024 100.729 73.5565 100.784 75.1119 101.693C76.551 102.533 77.2785 104.16 76.8852 105.652L78.9346 115.414C79.7678 118.605 80.6302 121.908 81.4544 125.165L81.4777 125.257L81.3501 125.265C79.8495 125.352 78.2991 125.442 77.057 125.492L76.9529 125.496Z" fill="#CCCCCC"/>
<path d="M58.0292 165.988H55.1087L53.7188 155.697H58.0292V165.988Z" fill="#FFB8B8"/>
<path d="M58.7764 168.575H49.3594V168.466C49.3594 166.619 51.0037 165.117 53.0249 165.117H58.7764V168.575Z" fill="#2F2E41"/>
<path d="M85.5504 163.788L82.7677 164.598L78.0234 155.178L82.1303 153.982L85.5504 163.788Z" fill="#FFB8B8"/>
<path d="M78.147 168.656L78.1109 168.552C77.4972 166.793 78.5647 164.906 80.4904 164.345L85.9705 162.75L87.1195 166.044L78.147 168.656Z" fill="#2F2E41"/>
<path d="M70.7689 94.7567C74.0003 94.7567 76.6198 92.3636 76.6198 89.4116C76.6198 86.4595 74.0003 84.0664 70.7689 84.0664C67.5375 84.0664 64.918 86.4595 64.918 89.4116C64.918 92.3636 67.5375 94.7567 70.7689 94.7567Z" fill="#FFB8B8"/>
<path d="M73.397 88.4213C73.4303 86.2654 72.4427 84.1302 70.9156 83.0567C70.1774 82.5336 69.2908 82.2594 68.3852 82.274C67.4796 82.2886 66.6023 82.5914 65.8815 83.138C64.3781 84.2604 63.4368 86.4267 63.5164 88.5808C66.885 88.5895 70.2536 88.5983 73.397 88.4213Z" fill="#2F2E41"/>
<path d="M59.6963 162.677L59.5792 162.666C57.0384 162.439 54.411 162.203 51.928 162.176L51.793 162.175L51.8114 162.053C52.3997 158.16 52.6491 154.114 52.8903 150.2C53.1284 146.336 53.3746 142.34 53.9482 138.545C54.1908 137.529 54.4273 136.525 54.663 135.525C56.6129 127.246 58.4548 119.425 62.2566 111.684L62.2926 111.611L62.3796 111.621C65.9468 112.015 69.3746 113.204 72.0312 114.969L72.0827 115.003L72.0802 115.061C72.007 116.252 71.9984 117.446 72.0544 118.639C73.2498 120.123 74.0502 121.884 74.3814 123.759C74.7126 125.634 74.5639 127.562 73.9492 129.364C74.9953 132.558 76.0767 135.859 77.1802 139.116C79.8598 145.827 82.6326 152.772 85.475 159.812L85.5216 159.928L85.3905 159.956C83.3454 160.394 81.2358 160.847 79.1546 161.022L79.0761 161.029L79.0387 160.965C73.7607 152.007 69.442 142.52 66.1537 132.661C65.4435 134.64 64.4203 136.426 63.4291 138.156C62.4851 139.722 61.6508 141.351 60.9321 143.032C60.4934 146.322 60.377 149.888 60.2646 153.336C60.1582 156.596 60.0578 159.675 59.7092 162.57L59.6963 162.677Z" fill="#2F2E41"/>
<path d="M68.77 83.1568C71.3061 82.6576 74.1114 83.1325 76.1031 84.6957C78.0948 86.2589 79.1062 88.9632 78.288 91.2824C77.4697 93.6017 74.6918 95.2335 72.1801 94.6346C72.8996 92.7821 72.0899 90.5076 70.331 89.4406C68.2451 88.1751 67.6708 85.1539 68.77 83.1568Z" fill="#2F2E41"/>
<path d="M71.8494 115.201L71.7566 115.162C68.5213 113.814 65.3489 112.779 62.3765 111.835L62.2854 111.817L62.2852 111.576L62.3443 111.595C62.3568 111.569 62.3708 111.541 62.3848 111.513C62.4254 111.431 62.4531 111.375 62.4767 111.338L62.476 111.337C62.7239 110.876 62.9208 110.43 63.1113 109.999C63.3079 109.554 63.5108 109.095 63.773 108.609C63.1459 108.057 62.7098 107.321 62.5269 106.507C62.3439 105.693 62.4235 104.842 62.7543 104.076C63.4109 102.654 65.0851 101.547 66.8441 101.363C67.4887 99.7423 68.925 96.3361 68.925 96.3361C68.925 96.3361 71.9452 96.2603 73.1598 96.1195L73.1802 96.1172L73.2003 96.1212C75.8518 96.652 78.0656 98.9442 78.5835 101.695C79.0208 104.018 78.3568 106.674 76.7141 109.174C75.866 110.404 74.934 111.574 73.9247 112.676C73.1848 113.521 72.4859 114.319 71.9055 115.123L71.8494 115.201Z" fill="#CCCCCC"/>
<path d="M77.7057 86.3234C75.9303 86.0813 74.5364 84.4235 74.7382 82.794C74.94 81.1646 76.7042 79.8331 78.4938 79.9595C80.2835 80.0859 81.8027 81.6492 81.7279 83.2876C81.6532 84.926 79.9724 86.6325 77.7057 86.3234Z" fill="#2F2E41"/>
<path d="M77.4281 85.2667C75.6528 85.0246 74.2589 83.3667 74.4607 81.7373C74.5988 80.6227 75.4682 79.6481 76.5765 79.1836C75.1448 79.4699 73.9127 80.6096 73.746 81.9549C73.5442 83.5844 74.9381 85.2423 76.7134 85.4844C77.3729 85.5795 78.046 85.4935 78.6601 85.2356C78.254 85.3134 77.8377 85.3239 77.4281 85.2667Z" fill="#2F2E41"/>
<path d="M42.9926 113.989C43.341 113.471 43.8697 113.1 44.4764 112.948C45.0832 112.795 45.7252 112.872 46.2784 113.164C46.3916 113.223 46.4999 113.292 46.6024 113.368L53.863 109.309L53.7138 113.348L46.8418 116.584C46.4537 116.947 45.9619 117.182 45.4342 117.255C44.9066 117.328 44.3692 117.236 43.8964 116.991C43.628 116.865 43.3893 116.684 43.1957 116.46C43.0021 116.237 42.858 115.974 42.7728 115.691C42.6875 115.408 42.663 115.11 42.7009 114.817C42.7388 114.524 42.8381 114.242 42.9926 113.989Z" fill="#FFB8B8"/>
<path d="M48.9609 111.608L49.0307 111.564C56.0538 107.139 63.3138 102.565 71.1173 97.3234L71.1685 97.2891L71.2232 97.3314C72.6068 98.4023 73.3337 100.449 72.9143 102.091C72.5263 103.611 71.0904 104.779 69.4192 104.937L60.0267 109.955C57.0109 111.736 53.8892 113.58 50.8025 115.375L50.715 115.426L50.6647 115.318C50.0748 114.055 49.4652 112.749 48.9999 111.696L48.9609 111.608Z" fill="#CCCCCC"/>
<path d="M195.747 169.001H0.25323C0.186069 169.001 0.121659 168.974 0.0741692 168.927C0.0266793 168.88 0 168.815 0 168.749C0 168.682 0.0266793 168.617 0.0741692 168.57C0.121659 168.523 0.186069 168.496 0.25323 168.496H195.747C195.814 168.496 195.878 168.523 195.926 168.57C195.973 168.617 196 168.682 196 168.749C196 168.815 195.973 168.88 195.926 168.927C195.878 168.974 195.814 169.001 195.747 169.001Z" fill="#CACACA"/>
</g>
<defs>
<clipPath id="clip0_1671_1880">
<rect width="196" height="169" fill="white"/>
</clipPath>
</defs>
</svg>
